<svg xmlns="http://www.w3.org/2000/svg" xmlns:xlink="http://www.w3.org/1999/xlink" viewBox="0 0 201.96 72.53"><defs><style>.cls-1{fill:none;}.cls-2{isolation:isolate;}.cls-3{clip-path:url(#clip-path);}.cls-4{fill:#fcc10c;}.cls-5{fill:#2864ae;}.cls-6{fill:#231f20;}.cls-7{fill:#fff;}.cls-8{fill:#d6d7d7;}.cls-9{fill:#be202e;}.cls-10,.cls-22{fill:#d1d2d4;}.cls-11{fill:#010101;}.cls-12{fill:#a4dbf7;}.cls-13{fill:#d32b41;}.cls-14{fill:#f1f2f2;}.cls-15{fill:#2d3b8e;}.cls-16{clip-path:url(#clip-path-2);}.cls-17{fill:#f4c185;}.cls-18{fill:#853918;}.cls-19{fill:#e2a971;}.cls-20{fill:#a65234;}.cls-21{fill:#662510;}.cls-22{mix-blend-mode:multiply;}</style><clipPath id="clip-path"><rect class="cls-1" x="-0.12" y="0.07" width="201.96" height="72.54"/></clipPath><clipPath id="clip-path-2"><polygon class="cls-1" points="-0.12 116.07 98.54 0.07 -0.12 0.07 -0.12 116.07"/></clipPath></defs><title>2Mesa de trabajo 1</title><g class="cls-2"><g id="Capa_1" data-name="Capa 1"><g class="cls-3"><rect class="cls-4" x="-0.12" y="0.07" width="201.96" height="202.01"/><polygon class="cls-5" points="-0.12 116.07 98.54 0.07 -0.12 0.07 -0.12 116.07"/><path class="cls-6" d="M65.84,56a.37.37,0,0,1-.36-.37V51.92a.37.37,0,1,1,.73,0v3.73A.37.37,0,0,1,65.84,56Z"/><path class="cls-6" d="M65.84,58.9a1.77,1.77,0,1,1,1.77-1.77A1.77,1.77,0,0,1,65.84,58.9Zm0-2.8a1,1,0,1,0,1,1A1,1,0,0,0,65.84,56.1Z"/><rect class="cls-7" x="36.29" y="8.48" width="59.1" height="43.44"/><path class="cls-8" d="M44.79,9.86c-7.3,0-8.37,27.35-8.5,38.82V8.48h10.4C47.11,9.33,46.64,9.86,44.79,9.86Z"/><path class="cls-9" d="M62,19.73H61v-.27h1Zm-2,0H59v-.27h1Zm-2,0h-1v-.27h1Zm-2,0h-1v-.27h1Zm-2,0h-1v-.27h1Zm-2,0h-1v-.27h1Zm-2,0h-1v-.27h1Zm-2,0h-1v-.27h1Zm-2,0h-1v-.27h1Zm-2,0h-1v-.27h1Z"/><rect class="cls-10" x="43.24" y="27.48" width="9" height="0.22"/><rect class="cls-10" x="43.24" y="22.8" width="16.34" height="0.22"/><rect class="cls-10" x="43.24" y="32.32" width="27.56" height="0.22"/><rect class="cls-11" x="32.18" y="7.83" width="67.33" height="2.02"/><rect class="cls-12" x="50.59" y="27.33" width="3.89" height="11.51"/><rect class="cls-12" x="57.17" y="22.46" width="3.89" height="16.38"/><rect class="cls-13" x="63.92" y="19.06" width="3.89" height="19.78"/><rect class="cls-4" x="70.8" y="31.78" width="3.89" height="7.06"/><rect class="cls-12" x="77.69" y="28.95" width="3.89" height="9.89"/><path class="cls-6" d="M88.69,39.27H42.87a.37.37,0,0,1-.36-.37V15.76a.37.37,0,1,1,.73,0V38.53H88.69a.37.37,0,0,1,0,.74Z"/><rect class="cls-10" x="42.87" y="45.71" width="19.76" height="0.86"/><rect class="cls-10" x="50.35" y="11.93" width="30.73" height="1.3"/><rect class="cls-10" x="42.87" y="47.78" width="46.91" height="0.57"/><rect class="cls-10" x="56.72" y="14.46" width="17.97" height="0.57"/><rect class="cls-10" x="45.66" y="42.92" width="10.14" height="0.57"/><polygon class="cls-14" points="79.03 25.7 79.03 17.17 92.82 17.17 92.82 25.7 80.98 25.7 79.03 27.33 79.03 25.7"/><rect class="cls-10" x="60.5" y="42.92" width="10.14" height="0.57"/><rect class="cls-10" x="80.86" y="19.47" width="10.14" height="0.57"/><rect class="cls-10" x="80.86" y="20.49" width="10.14" height="0.57"/><rect class="cls-10" x="80.86" y="21.51" width="10.14" height="0.57"/><rect class="cls-10" x="80.86" y="22.54" width="10.14" height="0.57"/><rect class="cls-10" x="75.44" y="42.92" width="10.14" height="0.57"/><rect class="cls-10" x="42.87" y="48.85" width="46.91" height="0.57"/><polygon class="cls-6" points="41.56 17.17 42.87 14.74 44.26 17.17 41.56 17.17"/><polygon class="cls-6" points="88.07 37.46 90.13 38.84 88.07 40.06 88.07 37.46"/><rect class="cls-12" x="42.91" y="42.31" width="1.8" height="1.8"/><rect class="cls-13" x="57.78" y="42.31" width="1.8" height="1.8"/><rect class="cls-4" x="72.65" y="42.31" width="1.8" height="1.8"/><path class="cls-15" d="M77.24,29.69h-.43v-.27h.43Zm-1.42,0h-1v-.27h1Zm-2,0h-1v-.27h1Zm-2,0h-1v-.27h1Zm-2,0h-1v-.27h1Zm-2,0h-1v-.27h1Zm-2,0H65v-.27h1Zm-2,0H63v-.27h1Zm-2,0H61v-.27h1Zm-2,0H59v-.27h1Zm-2,0h-1v-.27h1Zm-2,0h-1v-.27h1Zm-2,0h-1v-.27h1Zm-2,0h-1v-.27h1Zm-2,0h-1v-.27h1Zm-2,0h-1v-.27h1Zm-2,0h-1v-.27h1Zm-2,0h-1v-.27h1Z"/><g class="cls-16"><path class="cls-17" d="M12.09,42.8a1,1,0,0,0-.22-.37l.07,0c.3-.11.09-.5-.22-.4a1.09,1.09,0,0,1-.36.06h-.1l-.13,0H11a.33.33,0,0,1-.1,0h-.28c-.47,0-.95,0-1.42.07a3,3,0,0,0-.48.08l-.31.07-.06,0-.49,0a.54.54,0,0,0-.27-.06c-1.23.1-1.06,2.07-.74,2.75a.43.43,0,0,0,.72,0,2,2,0,0,1,.1-.21l.08,0a3.91,3.91,0,0,0,2.32-.19,6.22,6.22,0,0,0,1.05-.47c.36-.21.42-.41.65-.7S12.17,43.08,12.09,42.8Zm-3.19.94c-.13.1-.13.31-.27.39a4,4,0,0,1-.71.2c.08-.2.17-.4.24-.61l.3,0h.11l.33.06Z"/><path class="cls-17" d="M10.74,42.67a15.77,15.77,0,0,1,2.07-4.37,32.93,32.93,0,0,1,2.55-3.67c.85-1.06.55-2.25.62-3.54A30.94,30.94,0,0,1,16.69,26,2.61,2.61,0,0,0,19,27.51a2,2,0,0,0,.88-.15A23.21,23.21,0,0,1,19,31.72c-.31,1.13-.55,2.31-.88,3.43a10.35,10.35,0,0,1-2.19,3.46c-.19.21-.37.43-.54.64-.74.88-1.5,1.75-2.27,2.59-.44.47-1.8,2.5-2.35,1.53C10.59,43.05,10.66,43.05,10.74,42.67Z"/><path class="cls-18" d="M18.56,18.57c.07-1.78,1.24-3.82.91-5.47-.27-1.34-.44-2.69.51-3.81a7.23,7.23,0,0,1,4.25-2.24A4.8,4.8,0,0,1,28,8a5,5,0,0,1,2,3.33,4.52,4.52,0,0,1-.38,2c-.08.22-.18.45-.26.67a.65.65,0,0,1,.05.2,23.2,23.2,0,0,1,0,3.12,10.2,10.2,0,0,1-.15,2.76,3.9,3.9,0,0,1-3.23,2.57,7.56,7.56,0,0,1-2.92-.09c-.9-.2-1.77-.52-2.68-.7l-.6-.15L20,20.12,19.5,21.6c-.57-.3-.75-.78-.89-1.74A7,7,0,0,1,18.56,18.57Z"/><path class="cls-17" d="M38.79,43.22c.24.26.31.46.66.62a4.67,4.67,0,0,0,1,.33A3.6,3.6,0,0,0,42.73,44l.08-.06a2,2,0,0,0,.11.2.4.4,0,0,0,.69-.08c.26-.74.32-2.76-.87-2.69a.38.38,0,0,0-.25.1l-.48,0H42l-.3,0h-.47c-.45,0-.91.07-1.36.13l-.28,0h-.18l-.13,0-.09,0a1,1,0,0,1-.35,0c-.3-.07-.48.37-.19.43h.07a1.15,1.15,0,0,0-.19.41C38.41,42.9,38.61,43,38.79,43.22Zm2.81-.12.31-.1L42,43h.3c.08.2.17.39.26.58a2.72,2.72,0,0,1-.69-.1c-.15-.06-.16-.27-.29-.36Z"/><path class="cls-17" d="M19.53,64.43a7.58,7.58,0,0,0-.08-.82l1.27-.2c.63-.1,1.26-.23,1.89-.33l.47-.08.13,0,.13,0,.43,0,.31,0c-.06,2.89-.14,5.78-.26,8.66-.1,2.46-.22,4.91-.23,7.38a17.23,17.23,0,0,1-.27,2.58c-.14,1.42-.32,2.84-.44,4.26a2,2,0,0,1,0,.26c0,.34-.06.67-.08,1a.79.79,0,0,1-.84.69.91.91,0,0,1-.82-.8c0-.15-.05-.31-.08-.46a.87.87,0,0,1-.27-.55c-.5-3.57-1.25-7.11-1.58-10.69a37,37,0,0,1-.07-5.57A39.78,39.78,0,0,0,19.53,64.43Z"/><path class="cls-17" d="M27.3,62.61a32.15,32.15,0,0,0,4-.54A14.46,14.46,0,0,0,31,64.44a40.15,40.15,0,0,0,.64,5.23,37,37,0,0,1,.17,5.57c-.17,3.6-.77,7.15-1.11,10.72a.86.86,0,0,1-.25.55l-.06.46a.86.86,0,0,1-.78.81.83.83,0,0,1-.87-.69l-.12-1a1,1,0,0,1,0-.26c-.19-1.43-.43-2.84-.63-4.26A16.18,16.18,0,0,1,27.57,79c-.12-2.46-.35-4.91-.55-7.38-.25-3-.46-5.93-.66-8.9Z"/><path class="cls-17" d="M25.83,21.78c-.72.68-2.31,1-3,0-.32,0-.65-.32-.54-.84l0-.16a.88.88,0,0,1,.06-.26q.08-.48.12-1c0-.13,0-.25.05-.38v-.25a.75.75,0,0,1,.11-.45s0,0,0-.08a1.94,1.94,0,0,1,0-.2c.17-.71.87-.57,1,0a.67.67,0,0,1,.29.4s0,.07,0,.11a1.84,1.84,0,0,1,.06.47h0a.44.44,0,0,1,.6.07.5.5,0,0,1,.24,0,.41.41,0,0,1,.05-.09,1,1,0,0,1,.06-.2c.22-.46.81-.29.94.22a.87.87,0,0,1,0,.36c0,.15,0,.31-.05.46l0,.37h0c0,.22,0,.44,0,.66A.81.81,0,0,1,25.83,21.78Z"/><path class="cls-19" d="M26,19.52c0,.15,0,.31-.05.46l0,.37h0s-1.18,2.24-3.6.15c0-.13.15-1.21.17-1.34v-.25a.75.75,0,0,1,.11-.45s0,0,0-.08l1.36.32,1,.23.94.22A.87.87,0,0,1,26,19.52Z"/><path class="cls-17" d="M28.54,10.83a2,2,0,0,0-.63-.45c-.51-.24-1.34,0-1.88-.16-.92-.2-2.21-.63-3,.09s-.61,1.75-.76,2.69a5.78,5.78,0,0,1-.12.57l0,0a1,1,0,0,0-.72-.31.52.52,0,0,0-.52.36,2.06,2.06,0,0,0,.74,1.93h0a3.93,3.93,0,0,0,0,1,4.93,4.93,0,0,0,1.59,2.83,2.31,2.31,0,0,0,2.52.67,3,3,0,0,0,1.93-1.88,8.39,8.39,0,0,0,.95-3C28.68,13.78,29.53,11.9,28.54,10.83Z"/><path class="cls-17" d="M34.31,38.84l.61.58c.82.8,1.66,1.58,2.53,2.34.48.43,2,2.3,2.49,1.28.14-.34.08-.33,0-.7a15.78,15.78,0,0,0-2.52-4.13,32.42,32.42,0,0,0-2.92-3.39c-1-1-.78-2.18-1-3.45a30.45,30.45,0,0,0-1.27-5.08c-.34-1-1.08-3.76-2.29-4.12-.59-.18-.8,1.33-.4,1.58a10.45,10.45,0,0,0-.31,3.1.63.63,0,0,0-.08.42,19,19,0,0,0,1.42,5c.42,1.1.78,2.24,1.23,3.32A10.29,10.29,0,0,0,34.31,38.84Z"/><path class="cls-17" d="M29.7,24.81a10.71,10.71,0,0,1,.22-2.64,6.36,6.36,0,0,0-1.1-.31l-.53-.1c-.4-.07-.78-.14-1.14-.24a2,2,0,0,0-1.53,0,2.94,2.94,0,0,1-.92.38c-.6.07-.9-.35-1.36-.61a1.58,1.58,0,0,0-.58-.19c-.44,0-1,.36-1.36.51s-1,.37-1.56.54h0l-.6.2-.59.19-.23.09a1,1,0,0,0-.63.84,2.18,2.18,0,0,0,0,.57.47.47,0,0,1,.15.13,3.39,3.39,0,0,1,.64,1.36.64.64,0,0,0,0,.27,11,11,0,0,1,.26,1.27.77.77,0,0,0,.42.65.88.88,0,0,0,.29.07,8.17,8.17,0,0,0,.86,0c.4,0,.81-.09,1.21-.15l.3,0,.54-.05a.42.42,0,0,0,.16.23,3.31,3.31,0,0,0,4.58,0,.5.5,0,0,0,.15-.26l.56,0a.63.63,0,0,0,.8.08,2.54,2.54,0,0,0,1.07-1.51,1.91,1.91,0,0,0,0-1.06A.75.75,0,0,0,29.7,24.81Z"/><path class="cls-6" d="M17.26,55.44c-.13-1.31-.41-12.52,1.22-11.42l.08-.16c.19-.4.4-.79.59-1.19l.06-.14c.12-.24.45-1.41.66-1.51a2.32,2.32,0,0,1,.7-.17.62.62,0,0,1,.19,0,13.4,13.4,0,0,1,1.79.18c1.67.22,3.37,0,5,.23a6.29,6.29,0,0,1,1.15.2.77.77,0,0,1,1.39.18l.06.2c.51,1.43,1.5,2.53,1.93,4a25.56,25.56,0,0,1,.56,6.71,44.46,44.46,0,0,1-.95,8.84,12.64,12.64,0,0,0-.24,4c.19,1.4,1,2.33,1.38,3.63.87,3-12.41,3.68-13.87,1.56a3.17,3.17,0,0,1-.42-1.87A43.66,43.66,0,0,0,18.5,62c-.31-2.2-1-4.32-1.24-6.54Z"/><path class="cls-14" d="M18.86,39.23a11.71,11.71,0,0,0,1-4.27,5.48,5.48,0,0,0-.37-1.51c-.08-.24-.18-.47-.27-.7-.06.17-.13.33-.19.5a18,18,0,0,0-.94,3.08c0,.16-1.05.08-1.69,0a3,3,0,0,1-.62-.14A1.21,1.21,0,0,1,15,34.69c.2-.71.46-1.42.59-2.14a41.27,41.27,0,0,0,.48-4.85,9.09,9.09,0,0,1,1.2-4.54c1-1.44,2.78-1.42,4.29-2h.05a4.06,4.06,0,0,1,.1-.78.77.77,0,0,1,.41-.49,4.87,4.87,0,0,0,4.3.14.82.82,0,0,1,.37.65c0,.25.09.51.14.76a6.63,6.63,0,0,1,2.71.37,3.83,3.83,0,0,1,2.17,2.47,31.24,31.24,0,0,1,1,3.29c.44,1.54.46,3.19,1,4.69a2.47,2.47,0,0,1,.08,2.09A10.21,10.21,0,0,1,32.58,36a.78.78,0,0,1-1.2-.16,7.28,7.28,0,0,1-1-1.94c-.11-.31-.22-.63-.31-.95a4.25,4.25,0,0,0-.29.56,2.33,2.33,0,0,0-.23,1,11.71,11.71,0,0,0,.75,3.17A21,21,0,0,1,31.48,43a.81.81,0,0,1-.05.34l-.09.17a3.73,3.73,0,0,1-2.42,1.32c-2.75.71-5.8,1.51-8.61.62A3.08,3.08,0,0,1,18,43.53c-.24-1,.41-2.52.64-3.45C18.68,39.8,18.76,39.52,18.86,39.23Z"/><path class="cls-18" d="M20.9,11a.59.59,0,0,1,.24-.09.89.89,0,0,1,.35-.5,15.26,15.26,0,0,1,5-1.87.73.73,0,0,1,.89.47c.92-.25,1.3,1.19.38,1.48a1.48,1.48,0,0,0-.29.12A5.37,5.37,0,0,1,27,11a5.05,5.05,0,0,0-.6.78,4.59,4.59,0,0,1-1.64,1.69A3.31,3.31,0,0,1,20.63,12,.77.77,0,0,1,20.9,11Z"/><path class="cls-10" d="M29.12,33.22a.91.91,0,0,1,.66.29,4.25,4.25,0,0,1,.29-.56c.09.32.2.64.31.95.44-1.19,1.29-3.95,0-5.21A3.72,3.72,0,0,1,29.12,33.22Z"/><path class="cls-10" d="M20.85,33.65s-.85-.43-1.65-.9c.09.23.19.46.27.7A5.41,5.41,0,0,0,20.85,33.65Z"/><path class="cls-10" d="M18.62,32.89a1.23,1.23,0,0,0,.39.36c.06-.17.13-.33.19-.5-.78-.45-.06-3.63,0-3.76C19.13,29.1,18.15,32.14,18.62,32.89Z"/><path class="cls-6" d="M12.76,44.08a.18.18,0,0,1-.18-.18V35.1a.18.18,0,0,1,.36,0v8.8A.18.18,0,0,1,12.76,44.08Z"/><path class="cls-6" d="M12,34.71h0a1.15,1.15,0,0,0,1.63,0l2.79-2.79a1.15,1.15,0,0,0,0-1.63h0a1.17,1.17,0,0,0-1.63,0L12,33.08A1.17,1.17,0,0,0,12,34.71Z"/><path class="cls-6" d="M12.78,35.22A1.33,1.33,0,0,1,11.84,33l2.78-2.78a1.33,1.33,0,0,1,1.88,1.88l-2.78,2.78A1.33,1.33,0,0,1,12.78,35.22Zm2.78-5.08a.94.94,0,0,0-.68.28l-2.79,2.79a1,1,0,0,0,1.37,1.37l2.79-2.79a1,1,0,0,0-.69-1.65Z"/><path class="cls-6" d="M37.55,44.08a.18.18,0,0,1-.18-.18V35.1a.18.18,0,0,1,.36,0v8.8A.18.18,0,0,1,37.55,44.08Z"/><path class="cls-6" d="M38.34,34.71h0a1.15,1.15,0,0,1-1.63,0l-2.78-2.79a1.15,1.15,0,0,1,0-1.63h0a1.17,1.17,0,0,1,1.63,0l2.78,2.79A1.15,1.15,0,0,1,38.34,34.71Z"/><path class="cls-6" d="M37.53,35.22a1.33,1.33,0,0,1-.94-.39L33.8,32.05a1.33,1.33,0,1,1,1.88-1.88L38.47,33a1.33,1.33,0,0,1,0,1.88h0A1.33,1.33,0,0,1,37.53,35.22Zm-2.79-5.08a.94.94,0,0,0-.68.28,1,1,0,0,0,0,1.37l2.78,2.79a1,1,0,0,0,1.37-1.37l-2.78-2.79A1,1,0,0,0,34.74,30.14Z"/><rect class="cls-18" x="12.03" y="41.15" width="26.25" height="3.4" transform="translate(50.31 85.7) rotate(180)"/><polygon class="cls-18" points="14.69 94.52 35.38 94.52 37.97 48.27 12.1 48.27 14.69 94.52"/><polygon class="cls-20" points="8.72 50.4 41.35 50.4 42.09 43.9 7.98 43.9 8.72 50.4"/><path class="cls-21" d="M12.22,50.4l.13,2.25H31.89a3.18,3.18,0,0,1,3.18,3.29L33.66,94.52h1.72L37.85,50.4Z"/></g><path class="cls-11" d="M104.65,26.05V8.59h3.94a5,5,0,0,1,2.81.82,3.8,3.8,0,0,1,1.54,2.16,6.27,6.27,0,0,1,.25,1.85,4,4,0,0,1-.94,2.81,2.5,2.5,0,0,1-.91.68,3.07,3.07,0,0,1,1.48,1.33,5.09,5.09,0,0,1,.6,1.72,6.44,6.44,0,0,1,.1,1.21,5.82,5.82,0,0,1-.63,2.82,3.71,3.71,0,0,1-1.37,1.44,3.79,3.79,0,0,1-2,.62Zm2.84-10.33h1.1a1.62,1.62,0,0,0,1.65-1.2,3.48,3.48,0,0,0,.15-1.1,2.29,2.29,0,0,0-.53-1.64,1.64,1.64,0,0,0-1.27-.52h-1.1Zm0,7.72h1.1a1.88,1.88,0,0,0,1.86-1.38,3,3,0,0,0,.18-1.08,3.29,3.29,0,0,0-.56-2.13,1.81,1.81,0,0,0-1.48-.61h-1.1Z"/><path class="cls-11" d="M119.94,26.24a4.13,4.13,0,0,1-4.16-4.15V8.6h2.57V22.06a1.44,1.44,0,0,0,.45,1.07,1.51,1.51,0,0,0,2.13,0,1.43,1.43,0,0,0,.44-1.07V8.6h2.74V22.09A4,4,0,0,1,122.89,25,4.07,4.07,0,0,1,119.94,26.24Z"/><path class="cls-11" d="M135,21.7a4.94,4.94,0,0,1-.94,3.12,3.42,3.42,0,0,1-1.81,1.24,5,5,0,0,1-1.47.19,4.14,4.14,0,0,1-2.56-.76,4.36,4.36,0,0,1-1.34-1.71,7,7,0,0,1-.58-2.47l2.51-.18a3.82,3.82,0,0,0,.8,2.21,1.34,1.34,0,0,0,1.09.49,1.62,1.62,0,0,0,1.38-.85,2.06,2.06,0,0,0,.26-1.15,3.19,3.19,0,0,0-1-2.16c-.51-.5-1.29-1.23-2.33-2.22a9.85,9.85,0,0,1-1.85-2.27,5.24,5.24,0,0,1-.59-2.45,4.26,4.26,0,0,1,1.6-3.61,4,4,0,0,1,2.45-.74A4.44,4.44,0,0,1,133,9a3.6,3.6,0,0,1,1.26,1.36,5.12,5.12,0,0,1,.58,2l-2.52.46a3,3,0,0,0-.62-1.67,1.26,1.26,0,0,0-1-.43,1.2,1.2,0,0,0-1.1.64,2.5,2.5,0,0,0-.31,1.28,3.81,3.81,0,0,0,1,2.43,8.43,8.43,0,0,0,1.16,1.12,13.63,13.63,0,0,1,1.21,1.07,8.91,8.91,0,0,1,1.51,1.92,8.65,8.65,0,0,1,.4.82A4.81,4.81,0,0,1,135,21.7Z"/><path class="cls-11" d="M139.8,26.05h-2.63V8.6h2.63Z"/><path class="cls-11" d="M145.1,8.59l3.49,11.73V8.59h2.63V26.05H148.4l-3.62-11.18V26.05h-2.63V8.59Z"/><path class="cls-11" d="M153.58,26.05V8.59h7.48v2.64h-4.85V16h3.54v2.65h-3.54V23.4h4.85v2.65Z"/><path class="cls-11" d="M171.57,21.7a4.89,4.89,0,0,1-.95,3.12,3.35,3.35,0,0,1-1.81,1.24,4.88,4.88,0,0,1-1.46.19,4.14,4.14,0,0,1-2.56-.76,4.36,4.36,0,0,1-1.34-1.71,7,7,0,0,1-.58-2.47l2.51-.18a3.82,3.82,0,0,0,.8,2.21,1.34,1.34,0,0,0,1.09.49,1.65,1.65,0,0,0,1.38-.85,2.15,2.15,0,0,0,.26-1.15,3.19,3.19,0,0,0-1-2.16l-2.33-2.22a9.93,9.93,0,0,1-1.86-2.27,5.24,5.24,0,0,1-.58-2.45,4.26,4.26,0,0,1,1.6-3.61,4,4,0,0,1,2.45-.74,4.44,4.44,0,0,1,2.41.63,3.6,3.6,0,0,1,1.26,1.36,5.12,5.12,0,0,1,.58,2l-2.52.46a3,3,0,0,0-.62-1.67,1.27,1.27,0,0,0-1-.43,1.2,1.2,0,0,0-1.1.64,2.5,2.5,0,0,0-.31,1.28,3.85,3.85,0,0,0,1,2.43,8.6,8.6,0,0,0,1.17,1.12,15.35,15.35,0,0,1,1.21,1.07,9.23,9.23,0,0,1,1.51,1.92,8.65,8.65,0,0,1,.4.82A4.81,4.81,0,0,1,171.57,21.7Z"/><path class="cls-11" d="M182.08,21.7a4.89,4.89,0,0,1-1,3.12,3.35,3.35,0,0,1-1.81,1.24,4.88,4.88,0,0,1-1.46.19,4.14,4.14,0,0,1-2.56-.76A4.36,4.36,0,0,1,174,23.78a7,7,0,0,1-.58-2.47l2.51-.18a3.82,3.82,0,0,0,.8,2.21,1.34,1.34,0,0,0,1.09.49,1.65,1.65,0,0,0,1.38-.85,2.15,2.15,0,0,0,.26-1.15,3.19,3.19,0,0,0-1-2.16l-2.34-2.22a10.12,10.12,0,0,1-1.85-2.27,5.24,5.24,0,0,1-.58-2.45,4.26,4.26,0,0,1,1.6-3.61,4,4,0,0,1,2.45-.74,4.44,4.44,0,0,1,2.41.63,3.6,3.6,0,0,1,1.26,1.36,5,5,0,0,1,.57,2l-2.52.46a3,3,0,0,0-.61-1.67,1.27,1.27,0,0,0-1-.43,1.2,1.2,0,0,0-1.1.64,2.5,2.5,0,0,0-.31,1.28,3.85,3.85,0,0,0,1,2.43,8.6,8.6,0,0,0,1.17,1.12,15.35,15.35,0,0,1,1.21,1.07,9.23,9.23,0,0,1,1.51,1.92,8.65,8.65,0,0,1,.4.82A4.81,4.81,0,0,1,182.08,21.7Z"/><path class="cls-11" d="M115.46,28.74h2.76L115.5,46.19H113l-1.5-9.6-1.4,9.6h-2.51l-2.93-17.45h2.76l1.38,9.35,1.27-9.35h2.75l1.38,9.34Z"/><path class="cls-11" d="M124.19,28.52a4.18,4.18,0,0,1,4.18,4.18v9.52a4.17,4.17,0,0,1-4.18,4.18,4,4,0,0,1-3-1.23,4.06,4.06,0,0,1-1.21-3V32.7a4.18,4.18,0,0,1,4.16-4.18Zm1.44,4.12a1.44,1.44,0,0,0-.44-1.06,1.42,1.42,0,0,0-1.06-.44,1.46,1.46,0,0,0-1.08.44,1.44,1.44,0,0,0-.44,1.06v9.55a1.46,1.46,0,0,0,.44,1.07,1.5,1.5,0,0,0,1.08.44,1.5,1.5,0,0,0,1.5-1.51Z"/><path class="cls-11" d="M134.84,28.74A4,4,0,0,1,138.07,30a4.39,4.39,0,0,1,.91,2.95v2.53a4.05,4.05,0,0,1-1.41,3.13l2,7.62h-2.85l-1.59-6.57h-1.75v6.57h-2.64V28.74ZM136.41,33a1.34,1.34,0,0,0-1.5-1.52h-1.58V37h1.58a1.44,1.44,0,0,0,1.07-.44,1.49,1.49,0,0,0,.43-1.07Z"/><path class="cls-11" d="M144.4,40.65v5.54h-2.63V28.73h2.63V35l3.22-6.22h2.8l-3.6,7.12L151,46.19H148l-2.76-7.09Z"/><path class="cls-11" d="M160.48,41.84a4.89,4.89,0,0,1-.95,3.12,3.35,3.35,0,0,1-1.81,1.24,4.91,4.91,0,0,1-1.46.2,4.14,4.14,0,0,1-2.56-.77,4.24,4.24,0,0,1-1.34-1.7,7,7,0,0,1-.58-2.48l2.5-.18a3.81,3.81,0,0,0,.81,2.21,1.34,1.34,0,0,0,1.09.49,1.63,1.63,0,0,0,1.38-.85,2.13,2.13,0,0,0,.26-1.15,3.19,3.19,0,0,0-1-2.16l-2.34-2.22a9.85,9.85,0,0,1-1.85-2.27,5.24,5.24,0,0,1-.58-2.45,4.26,4.26,0,0,1,1.6-3.61,4,4,0,0,1,2.45-.74,4.44,4.44,0,0,1,2.41.63,3.6,3.6,0,0,1,1.26,1.36,5,5,0,0,1,.57,2l-2.52.46a3,3,0,0,0-.61-1.67,1.27,1.27,0,0,0-1-.43,1.2,1.2,0,0,0-1.1.64,2.4,2.4,0,0,0-.31,1.28,3.89,3.89,0,0,0,1,2.44A9.3,9.3,0,0,0,157,36.36c.61.51,1,.87,1.21,1.07a9.23,9.23,0,0,1,1.51,1.92,8.65,8.65,0,0,1,.4.82A4.86,4.86,0,0,1,160.48,41.84Z"/><path class="cls-11" d="M165.29,38.8v7.39h-2.63V28.74h2.63v7.41h3.18V28.74h2.63V46.19h-2.63V38.8Z"/><path class="cls-11" d="M177.58,28.52a4.18,4.18,0,0,1,4.18,4.18v9.52a4.17,4.17,0,0,1-7.13,3,4.06,4.06,0,0,1-1.21-3V32.7a4.18,4.18,0,0,1,4.16-4.18ZM179,32.64a1.44,1.44,0,0,0-.44-1.06,1.43,1.43,0,0,0-1.07-.44,1.46,1.46,0,0,0-1.07.44,1.4,1.4,0,0,0-.44,1.06v9.55a1.43,1.43,0,0,0,.44,1.07,1.5,1.5,0,0,0,1.07.44A1.5,1.5,0,0,0,179,42.19Z"/><path class="cls-11" d="M188.23,28.74A4,4,0,0,1,191.29,30a4.17,4.17,0,0,1,1.06,2.95v2.53a4,4,0,0,1-1.21,3,3.91,3.91,0,0,1-2.91,1.23h-1.52v6.57h-2.63V28.74ZM189.8,33a1.47,1.47,0,0,0-.41-1.1,1.45,1.45,0,0,0-1.09-.42h-1.59V37h1.59a1.4,1.4,0,0,0,1.06-.44,1.46,1.46,0,0,0,.44-1.07Z"/><rect class="cls-13" x="103.75" y="50.85" width="63.36" height="8.26"/><path class="cls-7" d="M109.13,56.26h-.29V55.18h-1.18v1.08h-.29V54h.29v1h1.18V54h.29Z"/><path class="cls-7" d="M111.76,55.1a1.25,1.25,0,0,1-.28.87,1.12,1.12,0,0,1-1.56,0,1.51,1.51,0,0,1,0-1.75,1.12,1.12,0,0,1,1.56,0A1.2,1.2,0,0,1,111.76,55.1Zm-1.82,0a1.08,1.08,0,0,0,.2.7.68.68,0,0,0,.56.24.66.66,0,0,0,.56-.24,1.06,1.06,0,0,0,.2-.7,1.13,1.13,0,0,0-.19-.69.68.68,0,0,0-.56-.23.72.72,0,0,0-.57.23A1.07,1.07,0,0,0,109.94,55.1Z"/><path class="cls-7" d="M114.29,56.26H114l-.45-1.51c-.06-.22-.1-.38-.11-.45,0,.12-.06.27-.11.46l-.44,1.5h-.29L112,54h.3l.36,1.4a3.82,3.82,0,0,1,.11.55,4.74,4.74,0,0,1,.12-.56l.41-1.39h.3l.42,1.4a3.39,3.39,0,0,1,.13.55,3.11,3.11,0,0,1,.11-.55l.36-1.4h.3Z"/><path class="cls-7" d="M116.82,56.26h-.29v-2h-.72V54h1.72v.25h-.71Z"/><path class="cls-7" d="M119.86,55.1a1.3,1.3,0,0,1-.28.87A1.14,1.14,0,0,1,118,56a1.51,1.51,0,0,1,0-1.75,1,1,0,0,1,.79-.31,1,1,0,0,1,.78.32A1.2,1.2,0,0,1,119.86,55.1Zm-1.82,0a1.08,1.08,0,0,0,.19.7.69.69,0,0,0,.57.24.68.68,0,0,0,.56-.24,1.37,1.37,0,0,0,0-1.39.67.67,0,0,0-.56-.23.72.72,0,0,0-.57.23A1.07,1.07,0,0,0,118,55.1Z"/><path class="cls-7" d="M122.51,55.64a.58.58,0,0,1-.22.48,1,1,0,0,1-.6.17,1.53,1.53,0,0,1-.64-.11V55.9a1.19,1.19,0,0,0,.32.1,1.35,1.35,0,0,0,.33,0,.63.63,0,0,0,.39-.1.35.35,0,0,0,.13-.27.36.36,0,0,0,0-.19.38.38,0,0,0-.16-.14l-.33-.15a1,1,0,0,1-.46-.27.62.62,0,0,1-.14-.41.52.52,0,0,1,.21-.43.86.86,0,0,1,.53-.16,1.61,1.61,0,0,1,.63.13l-.09.25a1.44,1.44,0,0,0-.55-.12.53.53,0,0,0-.32.09.3.3,0,0,0-.11.24.36.36,0,0,0,0,.19.41.41,0,0,0,.15.14,1.58,1.58,0,0,0,.31.14,1.5,1.5,0,0,1,.38.18.54.54,0,0,1,.19.21A.57.57,0,0,1,122.51,55.64Z"/><path class="cls-7" d="M123.7,56.26h-.29v-2h-.72V54h1.72v.25h-.71Z"/><path class="cls-7" d="M126.1,56.26l-.28-.71h-.91l-.28.71h-.29l.9-2.31h.26l.9,2.31Zm-.37-1-.26-.7-.11-.34c0,.12-.06.24-.09.34l-.27.7Z"/><path class="cls-7" d="M127,55.31v.95h-.29V54h.64a1,1,0,0,1,.63.16.58.58,0,0,1,.21.49.62.62,0,0,1-.47.62l.64,1H128l-.56-.95Zm0-.25h.35a.61.61,0,0,0,.41-.11.42.42,0,0,0,.13-.33.36.36,0,0,0-.14-.31.65.65,0,0,0-.42-.1H127Z"/><path class="cls-7" d="M129.45,56.26h-.3v-2h-.71V54h1.72v.25h-.71Z"/><path class="cls-7" d="M132,55.09l.6-1.13h.31l-.77,1.41v.89h-.29v-.88L131,54h.32Z"/><path class="cls-7" d="M135.15,55.1a1.3,1.3,0,0,1-.28.87,1,1,0,0,1-.79.32,1,1,0,0,1-.78-.31,1.51,1.51,0,0,1,0-1.75,1,1,0,0,1,.79-.31,1,1,0,0,1,.78.32A1.25,1.25,0,0,1,135.15,55.1Zm-1.82,0a1.08,1.08,0,0,0,.19.7.68.68,0,0,0,.56.24.69.69,0,0,0,.57-.24,1.12,1.12,0,0,0,.19-.7,1.07,1.07,0,0,0-.19-.69.68.68,0,0,0-.56-.23.72.72,0,0,0-.57.23A1.07,1.07,0,0,0,133.33,55.1Z"/><path class="cls-7" d="M137.4,54v1.49a.82.82,0,0,1-.23.61.93.93,0,0,1-.66.23.89.89,0,0,1-.65-.23.85.85,0,0,1-.23-.62V54h.29v1.49a.62.62,0,0,0,.15.44.61.61,0,0,0,.45.15.6.6,0,0,0,.44-.15.62.62,0,0,0,.16-.44V54Z"/><path class="cls-7" d="M138.3,55.31v.95H138V54h.63a1,1,0,0,1,.64.16.67.67,0,0,1-.26,1.11l.63,1h-.34l-.55-.95Zm0-.25h.34a.58.58,0,0,0,.41-.11.39.39,0,0,0,.13-.33.35.35,0,0,0-.13-.31.69.69,0,0,0-.42-.1h-.33Z"/><path class="cls-7" d="M142.86,55.1a1.3,1.3,0,0,1-.28.87A1.14,1.14,0,0,1,141,56a1.51,1.51,0,0,1,0-1.75,1,1,0,0,1,.79-.31,1,1,0,0,1,.78.32A1.2,1.2,0,0,1,142.86,55.1Zm-1.82,0a1.08,1.08,0,0,0,.19.7.69.69,0,0,0,.57.24.68.68,0,0,0,.56-.24,1.37,1.37,0,0,0,0-1.39.67.67,0,0,0-.56-.23.72.72,0,0,0-.57.23A1.07,1.07,0,0,0,141,55.1Z"/><path class="cls-7" d="M145.38,56.26h-.29l-.45-1.51a3.5,3.5,0,0,1-.12-.45,2.27,2.27,0,0,1-.11.46l-.43,1.5h-.29l-.61-2.3h.3l.36,1.4c0,.19.08.37.11.55a3.33,3.33,0,0,1,.12-.56l.41-1.39h.29l.43,1.4a4.88,4.88,0,0,1,.12.55c0-.14.06-.33.11-.55l.36-1.4h.3Z"/><path class="cls-7" d="M148.17,56.26h-.34l-1.23-1.91h0v.13c0,.19,0,.35,0,.49v1.29h-.27V54h.33l.07.11.76,1.17.4.62h0s0-.11,0-.27,0-.27,0-.33V54h.27Z"/><path class="cls-7" d="M149.63,54h.66a1.17,1.17,0,0,1,.67.14.49.49,0,0,1,.2.43.46.46,0,0,1-.11.33.53.53,0,0,1-.32.18h0a.66.66,0,0,1,.39.19.52.52,0,0,1,.12.36.61.61,0,0,1-.21.49.94.94,0,0,1-.59.17h-.81Zm.29,1h.43a.66.66,0,0,0,.39-.09.33.33,0,0,0,.12-.29.28.28,0,0,0-.13-.27.79.79,0,0,0-.43-.09h-.38Zm0,.24V56h.47a.67.67,0,0,0,.41-.1.4.4,0,0,0,.13-.33.34.34,0,0,0-.14-.3.72.72,0,0,0-.43-.1Z"/><path class="cls-7" d="M153.48,54v1.49a.79.79,0,0,1-.24.61.93.93,0,0,1-.66.23.9.9,0,0,1-.65-.23.85.85,0,0,1-.23-.62V54H152v1.49a.62.62,0,0,0,.16.44.61.61,0,0,0,.45.15.53.53,0,0,0,.59-.59V54Z"/><path class="cls-7" d="M155.39,55.64a.61.61,0,0,1-.22.48,1,1,0,0,1-.6.17,1.53,1.53,0,0,1-.64-.11V55.9a1.19,1.19,0,0,0,.32.1,1.35,1.35,0,0,0,.33,0,.63.63,0,0,0,.39-.1.35.35,0,0,0,.13-.27.36.36,0,0,0,0-.19.38.38,0,0,0-.16-.14l-.33-.15a1,1,0,0,1-.46-.27.62.62,0,0,1-.14-.41.52.52,0,0,1,.21-.43.86.86,0,0,1,.53-.16,1.61,1.61,0,0,1,.63.13l-.09.25a1.48,1.48,0,0,0-.55-.12.53.53,0,0,0-.32.09.28.28,0,0,0-.11.24.36.36,0,0,0,0,.19.41.41,0,0,0,.15.14,1.58,1.58,0,0,0,.31.14,1.5,1.5,0,0,1,.38.18.54.54,0,0,1,.19.21A.57.57,0,0,1,155.39,55.64Z"/><path class="cls-7" d="M156.5,56.26h-.83v-.17l.27-.06V54.19l-.27-.07V54h.83v.16l-.27.07V56l.27.06Z"/><path class="cls-7" d="M158.77,56.26h-.34l-1.23-1.91h0v.13c0,.19,0,.35,0,.49v1.29h-.27V54h.34l.07.11.75,1.17.4.62h0a2,2,0,0,1,0-.27V54h.27Z"/><path class="cls-7" d="M160.68,56.26h-1.29V54h1.29v.25h-1v.72h.94v.25h-.94V56h1Z"/><path class="cls-7" d="M162.49,55.64a.61.61,0,0,1-.22.48,1,1,0,0,1-.6.17,1.53,1.53,0,0,1-.64-.11V55.9a1.19,1.19,0,0,0,.32.1,1.35,1.35,0,0,0,.33,0,.63.63,0,0,0,.39-.1.35.35,0,0,0,.13-.27.36.36,0,0,0,0-.19.38.38,0,0,0-.16-.14l-.33-.15a1,1,0,0,1-.46-.27.62.62,0,0,1-.14-.41.54.54,0,0,1,.2-.43.91.91,0,0,1,.54-.16,1.61,1.61,0,0,1,.63.13l-.09.25a1.48,1.48,0,0,0-.55-.12.51.51,0,0,0-.32.09.28.28,0,0,0-.11.24.36.36,0,0,0,0,.19.41.41,0,0,0,.15.14,1.58,1.58,0,0,0,.31.14,1.5,1.5,0,0,1,.38.18.63.63,0,0,1,.19.21A.57.57,0,0,1,162.49,55.64Z"/><path class="cls-7" d="M164.25,55.64a.6.6,0,0,1-.21.48,1,1,0,0,1-.61.17,1.52,1.52,0,0,1-.63-.11V55.9a1.19,1.19,0,0,0,.32.1,1.35,1.35,0,0,0,.33,0,.58.58,0,0,0,.38-.1.32.32,0,0,0,.13-.27.36.36,0,0,0,0-.19.45.45,0,0,0-.16-.14l-.34-.15a1,1,0,0,1-.45-.27.62.62,0,0,1-.14-.41.54.54,0,0,1,.2-.43.91.91,0,0,1,.54-.16,1.61,1.61,0,0,1,.63.13l-.09.25a1.48,1.48,0,0,0-.55-.12.51.51,0,0,0-.32.09.29.29,0,0,0-.12.24.36.36,0,0,0,0,.19.47.47,0,0,0,.14.14,1.73,1.73,0,0,0,.32.14,1.7,1.7,0,0,1,.38.18.6.6,0,0,1,.18.21A.57.57,0,0,1,164.25,55.64Z"/><path class="cls-13" d="M170.77,55.31v.95h-.29V54h.63a1,1,0,0,1,.64.16.67.67,0,0,1-.26,1.11l.63,1h-.34l-.55-.95Zm0-.25h.34a.58.58,0,0,0,.41-.11.39.39,0,0,0,.13-.33.35.35,0,0,0-.13-.31.67.67,0,0,0-.42-.1h-.33Z"/><path class="cls-13" d="M173.77,56.26h-1.29V54h1.29v.25h-1v.72h.94v.25h-.94V56h1Z"/><path class="cls-13" d="M175.72,56.26l-.28-.71h-.91l-.27.71H174l.9-2.31h.26l.9,2.31Zm-.36-1-.26-.7-.11-.34c0,.12-.07.24-.1.34l-.26.7Z"/><path class="cls-13" d="M178.18,55.09a1.18,1.18,0,0,1-.31.87,1.24,1.24,0,0,1-.89.3h-.64V54h.7a1.17,1.17,0,0,1,.84.29A1.14,1.14,0,0,1,178.18,55.09Zm-.31,0a.94.94,0,0,0-.21-.67.9.9,0,0,0-.66-.23h-.37V56h.31A.82.82,0,0,0,177.87,55.1Z"/><path class="cls-13" d="M180.54,56.26l-.76-2h0a5.73,5.73,0,0,1,0,.62v1.4h-.26V54H180l.71,1.88h0L181.4,54h.42v2.3h-.28V54.84c0-.15,0-.35,0-.6h0l-.77,2Z"/><path class="cls-13" d="M184.46,55.1a1.3,1.3,0,0,1-.28.87,1,1,0,0,1-.78.32,1,1,0,0,1-.79-.31,1.51,1.51,0,0,1,0-1.75,1,1,0,0,1,.79-.31,1,1,0,0,1,.78.32A1.25,1.25,0,0,1,184.46,55.1Zm-1.82,0a1.08,1.08,0,0,0,.19.7.69.69,0,0,0,.57.24.68.68,0,0,0,.56-.24,1.12,1.12,0,0,0,.19-.7,1.07,1.07,0,0,0-.19-.69.67.67,0,0,0-.56-.23.72.72,0,0,0-.57.23A1.07,1.07,0,0,0,182.64,55.1Z"/><path class="cls-13" d="M185.25,55.31v.95H185V54h.64a1,1,0,0,1,.63.16.58.58,0,0,1,.21.49.62.62,0,0,1-.46.62l.63,1h-.34l-.56-.95Zm0-.25h.35A.61.61,0,0,0,186,55a.42.42,0,0,0,.13-.33.38.38,0,0,0-.13-.31.7.7,0,0,0-.43-.1h-.33Z"/><path class="cls-13" d="M188.25,56.26H187V54h1.28v.25h-1v.72h.94v.25h-.94V56h1Z"/><polygon class="cls-13" points="191.09 54.98 189.69 56.38 189.69 53.58 191.09 54.98"/></g><path class="cls-22" d="M100.86,71.9c-30.63,0-101,.7-101,.7h202S130.93,71.9,100.86,71.9Z"/></g></g></svg>